<svg width="32" height="32" viewBox="0 0 32 32" xmlns="http://www.w3.org/2000/svg">
  <defs>
    <linearGradient id="faviconGradient" x1="0%" y1="0%" x2="100%" y2="100%">
      <stop offset="0%" style="stop-color:#fbe9e7"/>
      <stop offset="50%" style="stop-color:#e3f2fd"/>
      <stop offset="100%" style="stop-color:#ede7f6"/>
    </linearGradient>
  </defs>
  
  <rect width="32" height="32" fill="#0C0C0F" rx="6"/>
  
  <!-- Simplified brain icon -->
  <path d="M16 6 C10 6, 6 10, 6 16 C6 18, 7 20, 8 22 C7 23, 7 24, 8 25 C9 26, 12 26, 16 26 C20 26, 23 26, 24 25 C25 24, 25 23, 24 22 C25 20, 26 18, 26 16 C26 10, 22 6, 16 6 Z" 
        fill="url(#faviconGradient)" 
        opacity="0.9"/>
  
  <!-- Mosaic dots -->
  <circle cx="12" cy="14" r="1" fill="#fbe9e7"/>
  <circle cx="16" cy="13" r="0.8" fill="#e3f2fd"/>
  <circle cx="20" cy="15" r="1" fill="#ede7f6"/>
  <circle cx="14" cy="19" r="0.6" fill="#fbe9e7"/>
  <circle cx="18" cy="19" r="0.8" fill="#e3f2fd"/>
</svg>
