<svg viewBox="0 0 120 120" xmlns="http://www.w3.org/2000/svg">
  <defs>
    <linearGradient id="brainGradient" x1="0%" y1="0%" x2="100%" y2="100%">
      <stop offset="0%" style="stop-color:#fbe9e7"/>
      <stop offset="50%" style="stop-color:#e3f2fd"/>
      <stop offset="100%" style="stop-color:#ede7f6"/>
    </linearGradient>
    <filter id="glow">
      <feGaussianBlur stdDeviation="3" result="coloredBlur"/>
      <feMerge> 
        <feMergeNode in="coloredBlur"/>
        <feMergeNode in="SourceGraphic"/>
      </feMerge>
    </filter>
  </defs>
  
  <!-- Brain outline -->
  <path d="M60 20 C40 20, 25 35, 25 55 C25 65, 30 75, 38 82 C35 85, 35 90, 40 93 C45 96, 55 95, 60 95 C65 95, 75 96, 80 93 C85 90, 85 85, 82 82 C90 75, 95 65, 95 55 C95 35, 80 20, 60 20 Z" 
        fill="url(#brainGradient)" 
        filter="url(#glow)"
        opacity="0.9"/>
  
  <!-- Brain details/folds -->
  <path d="M35 45 Q45 40, 55 45 Q65 50, 75 45" 
        stroke="#fbe9e7" 
        stroke-width="2" 
        fill="none" 
        opacity="0.7"/>
  
  <path d="M40 60 Q50 55, 60 60 Q70 65, 80 60" 
        stroke="#e3f2fd" 
        stroke-width="2" 
        fill="none" 
        opacity="0.7"/>
  
  <path d="M45 75 Q55 70, 65 75" 
        stroke="#ede7f6" 
        stroke-width="2" 
        fill="none" 
        opacity="0.7"/>
  
  <!-- Mosaic pattern overlay -->
  <circle cx="45" cy="50" r="3" fill="#fbe9e7" opacity="0.8"/>
  <circle cx="60" cy="45" r="2.5" fill="#e3f2fd" opacity="0.8"/>
  <circle cx="75" cy="55" r="3" fill="#ede7f6" opacity="0.8"/>
  <circle cx="50" cy="70" r="2" fill="#fbe9e7" opacity="0.8"/>
  <circle cx="70" cy="70" r="2.5" fill="#e3f2fd" opacity="0.8"/>
</svg>
